<?xml version="1.0" encoding="UTF-8" standalone="no"?>
<!-- Created with Inkscape (http://www.inkscape.org/) -->

<svg
   xmlns:dc="http://purl.org/dc/elements/1.1/"
   xmlns:cc="http://creativecommons.org/ns#"
   xmlns:rdf="http://www.w3.org/1999/02/22-rdf-syntax-ns#"
   xmlns:svg="http://www.w3.org/2000/svg"
   xmlns="http://www.w3.org/2000/svg"
   xmlns:sodipodi="http://sodipodi.sourceforge.net/DTD/sodipodi-0.dtd"
   xmlns:inkscape="http://www.inkscape.org/namespaces/inkscape"
   width="400.9447"
   height="254.4393"
   id="svg2"
   version="1.1"
   inkscape:version="0.48.2 r9819"
   sodipodi:docname="cloud.svg">
  <defs
     id="defs4" />
  <sodipodi:namedview
     id="base"
     pagecolor="#ffffff"
     bordercolor="#666666"
     borderopacity="1.0"
     inkscape:pageopacity="0.0"
     inkscape:pageshadow="2"
     inkscape:zoom="1"
     inkscape:cx="352.71455"
     inkscape:cy="117.64803"
     inkscape:document-units="px"
     inkscape:current-layer="layer1"
     showgrid="false"
     inkscape:window-width="1280"
     inkscape:window-height="756"
     inkscape:window-x="72"
     inkscape:window-y="0"
     inkscape:window-maximized="0"
     fit-margin-top="0"
     fit-margin-left="0"
     fit-margin-right="0"
     fit-margin-bottom="0" />
  <metadata
     id="metadata7">
    <rdf:RDF>
      <cc:Work
         rdf:about="">
        <dc:format>image/svg+xml</dc:format>
        <dc:type
           rdf:resource="http://purl.org/dc/dcmitype/StillImage" />
        <dc:title></dc:title>
      </cc:Work>
    </rdf:RDF>
  </metadata>
  <g
     inkscape:label="Ebene 1"
     inkscape:groupmode="layer"
     id="layer1"
     transform="translate(-49.512016,-572.9375)">
    <path
       style="fill:#333333;fill-opacity:1;fill-rule:nonzero;stroke:none"
       d="m 218.53046,572.9375 c -62.77397,0 -113.69582,49.13232 -113.69582,109.73831 0,8.19547 0.95616,16.1448 2.72078,23.82748 -32.152853,0.6288 -58.043404,27.46131 -58.043404,60.4344 0,32.88861 25.757817,59.67355 57.796064,60.4344 0.46635,0.0106 0.93265,0 1.40161,0 l 251.38401,0 0,-0.1649 c 50.34749,-2.38186 90.36303,-42.56526 90.36303,-91.76464 0,-50.732 -42.59826,-91.8471 -95.14501,-91.8471 -10.13082,0 -19.86449,1.53826 -29.0217,4.36975 -15.04533,-43.59229 -57.55183,-75.0277 -107.75956,-75.0277 z"
       id="path3050"
       inkscape:connector-curvature="0" />
  </g>
</svg>
